<svg xmlns="http://www.w3.org/2000/svg" version="1.1" xmlns:xlink="http://www.w3.org/1999/xlink" width="512" height="512" x="0" y="0" viewBox="0 0 512 512" style="enable-background:new 0 0 512 512" xml:space="preserve" class=""><g><path d="M113.989 296.248a10 10 0 0 0 8.328-15.523 100 100 0 1 1 180.954-77.3 10 10 0 0 0 19.508-4.412 120 120 0 1 0-217.135 92.751 9.988 9.988 0 0 0 8.345 4.484zM205.746 77.478a10 10 0 0 0 10-10V29.846a10 10 0 0 0-20 0v37.632a10 10 0 0 0 10 10zM118.029 93.661a10 10 0 0 0 17.321-10l-18.817-32.59a10 10 0 0 0-17.32 10zM31.226 136.379 63.815 155.2a10 10 0 1 0 10-17.32l-32.589-18.821a10 10 0 1 0-10 17.32zM57.632 225.592a10 10 0 0 0-10-10H10a10 10 0 0 0 0 20h37.632a10 10 0 0 0 10-10zM77.476 299.649a10 10 0 0 0-13.661-3.66l-32.589 18.816a10 10 0 1 0 10 17.32l32.589-18.815a10 10 0 0 0 3.661-13.661zM342.688 156.536a9.953 9.953 0 0 0 4.99-1.341l32.59-18.816a10 10 0 1 0-10-17.32l-32.59 18.816a10 10 0 0 0 5.01 18.661zM279.8 97.321a10 10 0 0 0 13.66-3.66l18.815-32.59a10 10 0 0 0-17.32-10l-18.815 32.59a10 10 0 0 0 3.66 13.66zM451.39 330.863a95.591 95.591 0 0 0-174.822-70 75.622 75.622 0 0 0-97.7 40.724 95.982 95.982 0 1 0-16.339 190.564h267.4a82.074 82.074 0 0 0 21.461-161.288zm-21.465 141.291h-267.4a75.978 75.978 0 1 1 20.165-149.247 10 10 0 0 0 12.274-6.93 55.623 55.623 0 0 1 80.884-33.324 10 10 0 0 0 13.926-4.348 75.6 75.6 0 0 1 139.688 57.078 10 10 0 0 0 8.235 13.124 62.067 62.067 0 0 1-7.772 123.647z" fill="#ffffff" opacity="1" data-original="#000000" class=""></path></g></svg>