<svg xmlns="http://www.w3.org/2000/svg" version="1.1" xmlns:xlink="http://www.w3.org/1999/xlink" width="512" height="512" x="0" y="0" viewBox="0 0 512 512" style="enable-background:new 0 0 512 512" xml:space="preserve" class=""><g><path d="M461.677 289.571c2.394-19.692-.431-40.011-9.068-58.921 21.876-.608 41.538-14.409 49.237-34.742a7.5 7.5 0 0 0-14.029-5.313c-5.68 15.002-20.434 25.082-36.711 25.082h-6.803c-18.947-28.659-50.396-47.403-85.34-49.467-23.783-1.408-40.318 5.297-41.702 5.479-2.127.273-1.878-2.581-13.192-14.112-17.337-17.715-38.913-30.081-62.639-36.06 15.241-16.857 38.62-22.692 59.563-15.703 5.373 1.792 11.318-.09 14.791-4.687 13.657-18.076 34.462-28.441 57.081-28.441 35.243 0 64.915 25.212 70.555 59.949.6 3.694 3.878 6.387 7.573 6.297l.466-.014c.134-.005.268-.011.403-.011 14.985 0 28.695 8.816 34.929 22.46a7.5 7.5 0 0 0 13.644-6.234c-7.947-17.393-24.637-29.144-43.421-30.976-4.197-17.661-13.935-33.685-27.837-45.625a86.468 86.468 0 0 0-56.312-20.848c-26.986 0-51.837 12.194-68.36 33.5-8.268-2.593-16.878-3.644-25.616-3.129-21.736 1.285-41.619 12.53-54.131 30.362a137.332 137.332 0 0 0-16.555-1.006c-32.115 0-63.201 11.508-87.533 32.406-22.454 19.285-37.92 45.424-43.998 74.146C33.571 226.332-.724 262.35.013 306.468c.735 44.035 37.72 79.86 82.447 79.86h71.117c-2.221 37.667 28.543 67.989 64.917 67.989h93.513a7.501 7.501 0 0 0 0-15.002h-93.513c-27.148 0-49.597-21.656-50.042-48.275-.487-29.171 24.31-50.814 49.668-49.946 4.668.14 7.571-2.853 8.127-6.281 12.758-78.591 113.269-102.318 160.617-39.653 3.833 5.072 10.384 7.149 16.294 5.176 44.758-14.934 91.769 17.617 93.784 64.508 1.766 41.103-30.995 74.469-71.246 74.469h-78.687a7.501 7.501 0 0 0 0 15.002h78.687c23.758 0 45.898-9.452 62.338-26.613 40.885-42.683 27.741-113.165-26.357-138.131zm-14.545-5.172a86.147 86.147 0 0 0-48.394 1.6c-54.736-72.238-166.896-45.174-186.113 40.264-26.968 2.033-48.886 20.664-56.363 45.063H82.457c-36.591 0-66.849-29.207-67.448-65.108-.62-37.127 29.222-67.378 66.233-67.378.268 0 .533.01.798.02l.706.021.167.002a7.502 7.502 0 0 0 7.402-6.299c9.422-58.042 59-100.169 117.885-100.169 37.266 0 72.427 17.161 95.367 47.517 4.324 5.725 11.83 8.25 18.696 5.958 64.604-21.549 130.686 30.911 124.869 98.509z" fill="#ffffff" opacity="1" data-original="#000000" class=""></path></g></svg>