<svg xmlns="http://www.w3.org/2000/svg" version="1.1" xmlns:xlink="http://www.w3.org/1999/xlink" width="512" height="512" x="0" y="0" viewBox="0 0 64 64" style="enable-background:new 0 0 512 512" xml:space="preserve" class=""><g><path d="M5.298 24.682c0 5.316 4.325 9.641 9.641 9.641h35.389c4.618 0 8.374-3.756 8.374-8.374 0-4.336-3.303-7.915-7.521-8.344a8.46 8.46 0 0 0 .147-1.577c0-4.75-3.864-8.614-8.614-8.614a8.603 8.603 0 0 0-5.304 1.829A11.464 11.464 0 0 0 26.726 2c-6.353 0-11.521 5.168-11.521 11.521 0 .506.034 1.012.102 1.514-5.49-.186-10.009 4.202-10.009 9.647zm9.641-7.654c.471 0 .954.044 1.436.131a1.001 1.001 0 0 0 1.145-1.24 9.213 9.213 0 0 1-.313-2.397c0-5.25 4.271-9.521 9.521-9.521a9.478 9.478 0 0 1 9.242 7.3 1 1 0 0 0 1.731.42 6.615 6.615 0 0 1 5.016-2.306 6.621 6.621 0 0 1 6.614 6.614c0 .76-.132 1.506-.393 2.216a1.001 1.001 0 0 0 1.116 1.328c.09-.016.188-.011.277-.011 3.515 0 6.374 2.865 6.374 6.387s-2.859 6.374-6.374 6.374H14.938c-4.213 0-7.641-3.428-7.641-7.641s3.428-7.654 7.641-7.654z" fill="#ffffff" opacity="1" data-original="#000000" class=""></path><path d="M32.937 12.486a1 1 0 0 0 1.954-.424c-.518-2.386-1.645-4.221-3.349-5.454a1 1 0 0 0-1.172 1.62c1.293.936 2.157 2.368 2.567 4.257zM27.085 7.075c.034 0 .261.005.607.061a1 1 0 1 0 .313-1.976c-.536-.085-.895-.088-.929-.085-.55.004-.991.451-.991 1.001s.449.997.999.999zM16.911 37.883a.998.998 0 0 0-1.342.445l-.897 1.787a.999.999 0 0 0 .893 1.448c.366 0 .719-.202.895-.551l.897-1.787a.999.999 0 0 0-.445-1.342zM14.187 43.307a1 1 0 0 0-1.342.445l-1.826 3.636a.999.999 0 0 0 .893 1.448c.366 0 .719-.202.895-.551l1.826-3.636a.999.999 0 0 0-.445-1.342zM10.535 50.58a1 1 0 0 0-1.342.445l-1.826 3.636a.999.999 0 0 0 .893 1.448c.366 0 .719-.202.895-.551l1.826-3.636a.999.999 0 0 0-.445-1.342zM5.088 61.427a.999.999 0 0 0 1.343-.445l.897-1.788a.999.999 0 1 0-1.787-.897l-.897 1.788a.999.999 0 0 0 .445 1.342zM27.937 37.883a.998.998 0 0 0-1.342.445l-.897 1.787a.999.999 0 0 0 .893 1.448c.366 0 .719-.202.895-.551l.897-1.787a.999.999 0 0 0-.445-1.342zM25.213 43.307a1 1 0 0 0-1.342.445l-1.826 3.636a.999.999 0 0 0 .893 1.448c.366 0 .719-.202.895-.551l1.826-3.636a.999.999 0 0 0-.445-1.342zM21.561 50.58a1 1 0 0 0-1.342.445l-1.826 3.636a.999.999 0 0 0 .893 1.448c.366 0 .719-.202.895-.551l1.826-3.636a.999.999 0 0 0-.445-1.342zM17.909 57.853a1 1 0 0 0-1.342.445l-.897 1.788a.999.999 0 0 0 .893 1.448c.366 0 .719-.202.895-.551l.897-1.788a.999.999 0 0 0-.445-1.342zM38.962 37.883a.998.998 0 0 0-1.342.445l-.897 1.787a.999.999 0 0 0 .893 1.448c.366 0 .719-.202.895-.551l.897-1.787a.999.999 0 0 0-.445-1.342zM32.587 50.58a1 1 0 0 0-1.342.445l-1.826 3.636a.999.999 0 0 0 .893 1.448c.366 0 .719-.202.895-.551l1.826-3.636a.999.999 0 0 0-.445-1.342zM36.239 43.307a1 1 0 0 0-1.342.445l-1.826 3.636a.999.999 0 0 0 .893 1.448c.366 0 .719-.202.895-.551l1.826-3.636a.999.999 0 0 0-.445-1.342zM28.935 57.853a1.001 1.001 0 0 0-1.342.445l-.897 1.788a.999.999 0 0 0 .893 1.448c.366 0 .719-.202.895-.551l.897-1.788a.999.999 0 0 0-.445-1.342zM49.988 37.883a.998.998 0 0 0-1.342.445l-.897 1.787a.999.999 0 0 0 .893 1.448c.366 0 .719-.202.895-.551l.897-1.787a.999.999 0 0 0-.445-1.342zM43.613 50.58a1 1 0 0 0-1.342.445l-1.826 3.636a.999.999 0 0 0 .893 1.448c.366 0 .719-.202.895-.551l1.826-3.636a.999.999 0 0 0-.445-1.342zM47.265 43.307a1 1 0 0 0-1.342.445l-1.826 3.636a.999.999 0 0 0 .893 1.448c.366 0 .719-.202.895-.551l1.826-3.636a.999.999 0 0 0-.445-1.342zM39.961 57.853a1 1 0 0 0-1.342.445l-.897 1.788a.999.999 0 0 0 .893 1.448c.366 0 .719-.202.895-.551l.897-1.788a.999.999 0 0 0-.445-1.342z" fill="#ffffff" opacity="1" data-original="#000000" class=""></path></g></svg>