<svg xmlns="http://www.w3.org/2000/svg" version="1.1" xmlns:xlink="http://www.w3.org/1999/xlink" width="512" height="512" x="0" y="0" viewBox="0 0 512 512" style="enable-background:new 0 0 512 512" xml:space="preserve" class=""><g><path d="M503.467 217.6h-204.8a8.533 8.533 0 0 0 0 17.066h204.8a8.533 8.533 0 0 0 0-17.066zM256 226.133a8.533 8.533 0 0 0-8.533-8.533H8.533a8.534 8.534 0 0 0 0 17.066h238.933a8.533 8.533 0 0 0 8.534-8.533zM170.667 157.867a8.533 8.533 0 0 0 0 17.066h247.467a8.533 8.533 0 0 0 0-17.066H170.667zM8.533 174.933h110.933a8.533 8.533 0 0 0 0-17.066H8.533a8.534 8.534 0 0 0 0 17.066zM358.4 115.2h145.067a8.533 8.533 0 0 0 0-17.066H358.4a8.533 8.533 0 0 0 0 17.066zM93.867 115.2H307.2a8.533 8.533 0 0 0 0-17.066H93.867a8.533 8.533 0 0 0 0 17.066zM469.333 396.8H332.8a8.533 8.533 0 0 0 0 17.066h136.533a8.533 8.533 0 0 0 0-17.066zM281.6 396.8H42.667a8.533 8.533 0 0 0 0 17.066H281.6a8.533 8.533 0 0 0 0-17.066zM503.467 337.067h-281.6a8.533 8.533 0 0 0 0 17.066h281.6a8.533 8.533 0 0 0 0-17.066zM76.8 337.067a8.533 8.533 0 0 0 0 17.066h93.867a8.533 8.533 0 0 0 0-17.066H76.8zM469.333 294.4a8.533 8.533 0 0 0 0-17.066H409.6a8.533 8.533 0 0 0 0 17.066h59.733zM366.933 285.867a8.533 8.533 0 0 0-8.533-8.533H42.667a8.533 8.533 0 0 0 0 17.066H358.4a8.533 8.533 0 0 0 8.533-8.533z" fill="#ffffff" opacity="1" data-original="#000000" class=""></path></g></svg>