<svg xmlns="http://www.w3.org/2000/svg" version="1.1" xmlns:xlink="http://www.w3.org/1999/xlink" width="512" height="512" x="0" y="0" viewBox="0 0 512 512" style="enable-background:new 0 0 512 512" xml:space="preserve" class=""><g><path d="M256 96.745c-87.813 0-159.255 71.442-159.255 159.255S168.187 415.255 256 415.255 415.255 343.813 415.255 256 343.813 96.745 256 96.745Zm0 298.51c-76.786 0-139.255-62.469-139.255-139.255S179.214 116.745 256 116.745 395.255 179.214 395.255 256 332.786 395.255 256 395.255ZM256 67.293a10 10 0 0 0 10-10V10a10 10 0 0 0-20 0v47.293a10 10 0 0 0 10 10ZM256 444.707a10 10 0 0 0-10 10V502a10 10 0 0 0 20 0v-47.293a10 10 0 0 0-10-10ZM147.986 88.915a10 10 0 0 0 17.321-10L141.66 37.958a10 10 0 1 0-17.32 10ZM364.014 423.085a10 10 0 0 0-17.321 10l23.647 40.957a10 10 0 1 0 17.32-10ZM88.915 147.986 47.958 124.34a10 10 0 1 0-10 17.32l40.957 23.647a10 10 0 0 0 10-17.321ZM474.042 370.34l-40.957-23.647a10 10 0 0 0-10 17.321l40.957 23.646a10 10 0 1 0 10-17.32ZM67.293 256a10 10 0 0 0-10-10H10a10 10 0 0 0 0 20h47.293a10 10 0 0 0 10-10ZM502 246h-47.293a10 10 0 0 0 0 20H502a10 10 0 0 0 0-20ZM78.915 346.693 37.958 370.34a10 10 0 1 0 10 17.32l40.957-23.646a10 10 0 0 0-10-17.321ZM428.1 166.648a9.953 9.953 0 0 0 4.99-1.341l40.957-23.647a10 10 0 1 0-10-17.32l-40.957 23.646a10 10 0 0 0 5.01 18.662ZM161.646 419.425a10 10 0 0 0-13.66 3.66l-23.646 40.957a10 10 0 1 0 17.32 10l23.647-40.957a10 10 0 0 0-3.661-13.66ZM350.354 92.575a10 10 0 0 0 13.66-3.66l23.646-40.957a10 10 0 1 0-17.32-10l-23.647 40.957a10 10 0 0 0 3.661 13.66Z" fill="#ffffff" opacity="1" data-original="#000000" class=""></path></g></svg>